<svg xmlns="http://www.w3.org/2000/svg"  viewBox="0 0 99 99"><defs><clipPath id="r2opa"><path fill="#656566" d="M0 99V0h99v99zm5-49.501c0 24.577 19.923 44.5 44.5 44.5 24.576 0 44.5-19.923 44.5-44.5s-19.924-44.5-44.5-44.5C24.923 5 5 24.922 5 49.5z"/></clipPath></defs><g><g><path fill="#2f3338" d="M49.5 5C74.076 5 94 24.921 94 49.498s-19.924 44.5-44.5 44.5c-24.577 0-44.5-19.923-44.5-44.5s19.923-44.5 44.5-44.5z"/><path fill="none" stroke="#454648" stroke-linecap="round" stroke-linejoin="round" stroke-miterlimit="20" stroke-width="10" d="M49.5 5C74.076 5 94 24.921 94 49.498s-19.924 44.5-44.5 44.5c-24.577 0-44.5-19.923-44.5-44.5s19.923-44.5 44.5-44.5z" clip-path="url(&quot;#r2opa&quot;)"/></g></g></svg>